FFmpeg version SVN-r25716, Copyright (c) 2000-2010 the FFmpeg developers  built on Nov 10 2010 12:23:18 with gcc 4.1.2 20080704 (Red Hat 4.1.2-48)  configuration: --enable-libmp3lame --enable-shared --disable-mmx --arch=x86_64  libavutil     50.33. 0 / 50.33. 0  libavcore      0.12. 1 /  0.12. 1  libavcodec    52.94. 4 / 52.94. 4  libavformat   52.84. 0 / 52.84. 0  libavdevice   52. 2. 2 / 52. 2. 2  libavfilter    1.59. 0 /  1.59. 0  libswscale     0.12. 0 /  0.12. 0Seems stream 0 codec frame rate differs from container frame rate: 600.00 (600/1) -> 10.00 (10/1)Input #0, mov,mp4,m4a,3gp,3g2,mj2, from '/RAID10/data/converted_video_files/12012.mov':  Duration: 00:00:18.00, start: 0.000000, bitrate: 1088 kb/s    Stream #0.0(eng): Video: svq3, yuvj420p, 327x310, 1087 kb/s, 10 fps, 10 tbr, 600 tbn, 600 tbc[buffer @ 0xa94d580] w:327 h:310 pixfmt:yuvj420p[ffsink @ 0xa94cf00] auto-inserting filter 'auto-inserted scaler 0' between the filter 'src' and the filter 'out'[scale @ 0xa94d1f0] w:327 h:310 fmt:yuvj420p -> w:327 h:310 fmt:yuv420p flags:0x4Output #0, flv, to '/RAID10/data/converted_video_files/12012.flv':  Metadata:    encoder         : Lavf52.84.0    Stream #0.0(eng): Video: flv, yuv420p, 327x310, q=2-31, 600 kb/s, 1k tbn, 24 tbcStream mapping:  Stream #0.0 -> #0.0Press [q] to stop encodingframe=   80 fps=  0 q=4.3 size=     439kB time=7.96 bitrate= 452.4kbits/s    frame=  146 fps=140 q=3.6 size=     806kB time=14.54 bitrate= 454.2kbits/s    frame=  180 fps=138 q=3.5 Lsize=    1001kB time=17.96 bitrate= 456.7kbits/s    video:998kB audio:0kB global headers:0kB muxing overhead 0.302330%